<svg width="260" height="260" viewBox="0 0 260 260" fill="none" xmlns="http://www.w3.org/2000/svg">
<path d="M0 0H260V260H0V0Z" fill="url(#paint0_linear_2090_86)"/>
<path d="M125.56 190.26C123.28 190.26 121.48 189.6 120.16 188.28C118.96 186.96 118.36 185.1 118.36 182.7V112.86H106.84C104.92 112.86 103.36 112.38 102.16 111.42C101.08 110.34 100.54 108.9 100.54 107.1C100.54 105.3 101.08 103.92 102.16 102.96C103.36 102 104.92 101.52 106.84 101.52H122.32L118.36 105.3V98.46C118.36 87.06 121.12 78.36 126.64 72.36C132.28 66.36 140.5 62.88 151.3 61.92L156.52 61.38C158.2 61.26 159.52 61.56 160.48 62.28C161.56 63 162.22 63.9 162.46 64.98C162.82 66.06 162.88 67.2 162.64 68.4C162.4 69.48 161.86 70.44 161.02 71.28C160.18 72.12 159.16 72.6 157.96 72.72L153.82 73.08C146.5 73.68 141.16 75.9 137.8 79.74C134.56 83.58 132.94 89.22 132.94 96.66V104.22L130.78 101.52H152.38C154.42 101.52 155.98 102 157.06 102.96C158.14 103.92 158.68 105.3 158.68 107.1C158.68 108.9 158.14 110.34 157.06 111.42C155.98 112.38 154.42 112.86 152.38 112.86H132.94V182.7C132.94 187.74 130.48 190.26 125.56 190.26Z" fill="#FFA600"/>
<defs>
<linearGradient id="paint0_linear_2090_86" x1="130" y1="0" x2="130" y2="260" gradientUnits="userSpaceOnUse">
<stop stop-color="#1B001C"/>
<stop offset="1" stop-color="#69006D"/>
</linearGradient>
</defs>
</svg>
